# xmcd CD database file
#
# Track frame offsets:
#	150
#	11667
#	25262
#	40747
#	56305
#	75445
#	99990
#	115232
#	131827
#	150300
#	166815
#	189762
#
# Disc length: 2735 seconds
#
# Revision: 0
# Processed by: cddbd v1.5.1PL2 Copyright (c) Steve Scherf et al.
# Submitted via: CDex 1.51
#
DISCID=7e0aad0c
DTITLE=SENSHUKAI - moon story - harvest moon
DYEAR=1995
DGENRE=Pop
TTITLE0=You Can Close Your Eyes/James Taylor
TTITLE1=I Will Always Love You/Linda Ronstadt
TTITLE2=I'm Blowin' Away/Bonnie Raitt
TTITLE3=If You Don't Know Me By Now/Simply Red
TTITLE4=No More Rhyme(Acoustic Mix)/Debbie Gibson
TTITLE5=A Whiter Shade Of Pale/Joe Cocker
TTITLE6=Will You Still Love Me Tommorow/Laura Branigan
TTITLE7=Aubrey/Bread
TTITLE8=Too Far Gone/Emmylou Harris
TTITLE9=You're The One/Carly Simon
TTITLE10=I Want To Know What Love Is/Foreigner
TTITLE11=Still Crazy After All These Years/Paul Simon
EXTD=YEAR: 1995
EXTT0=
EXTT1=
EXTT2=
EXTT3=
EXTT4=
EXTT5=
EXTT6=
EXTT7=
EXTT8=
EXTT9=
EXTT10=
EXTT11=
PLAYORDER=
